<svg width="600" height="400" viewBox="0 0 600 400" xmlns="http://www.w3.org/2000/svg">
  <defs>
    <linearGradient id="bgGradient" x1="0%" y1="0%" x2="0%" y2="100%">
      <stop offset="0%" style="stop-color:#f8f9ff"/>
      <stop offset="100%" style="stop-color:#ffffff"/>
    </linearGradient>
    <linearGradient id="brandGradient" x1="0%" y1="0%" x2="100%" y2="0%">
      <stop offset="0%" style="stop-color:#10409a"/>
      <stop offset="100%" style="stop-color:#1659d6"/>
    </linearGradient>
  </defs>
  
  <!-- Background -->
  <rect width="600" height="400" fill="url(#bgGradient)"/>
  
  <!-- Header Bar -->
  <rect x="0" y="0" width="600" height="50" fill="#ffffff" stroke="#e5e7eb" stroke-width="1"/>
  <circle cx="25" cy="25" r="6" fill="#ef4444"/>
  <circle cx="45" cy="25" r="6" fill="#f59e0b"/>
  <circle cx="65" cy="25" r="6" fill="#10b981"/>
  <rect x="200" y="15" width="200" height="20" rx="4" fill="#f3f4f6"/>
  <text x="300" y="29" font-family="system-ui" font-size="11" fill="#6b7280" text-anchor="middle">saligaffiliate.com</text>
  
  <!-- Sidebar -->
  <rect x="0" y="50" width="70" height="350" fill="#ffffff" stroke="#e5e7eb" stroke-width="1"/>
  <rect x="15" y="70" width="40" height="32" rx="4" fill="#e8f0fe"/>
  <rect x="20" y="115" width="30" height="6" rx="2" fill="#e5e7eb"/>
  <rect x="20" y="130" width="25" height="6" rx="2" fill="#e5e7eb"/>
  <rect x="20" y="145" width="28" height="6" rx="2" fill="#e5e7eb"/>
  
  <!-- Main Content Area -->
  <g transform="translate(90, 70)">
    <!-- KPI Cards -->
    <rect x="0" y="0" width="145" height="80" rx="8" fill="#ffffff" stroke="#e5e7eb" stroke-width="1"/>
    <rect x="10" y="15" width="50" height="6" rx="2" fill="#e5e7eb"/>
    <rect x="10" y="35" width="80" height="24" rx="4" fill="url(#brandGradient)"/>
    <text x="50" y="52" font-family="system-ui" font-size="14" fill="#ffffff" font-weight="bold" text-anchor="middle">₱125K</text>
    
    <rect x="160" y="0" width="145" height="80" rx="8" fill="#ffffff" stroke="#e5e7eb" stroke-width="1"/>
    <rect x="170" y="15" width="50" height="6" rx="2" fill="#e5e7eb"/>
    <rect x="170" y="35" width="80" height="24" rx="4" fill="#10b981"/>
    <text x="210" y="52" font-family="system-ui" font-size="14" fill="#ffffff" font-weight="bold" text-anchor="middle">1,234</text>
    
    <rect x="320" y="0" width="145" height="80" rx="8" fill="#ffffff" stroke="#e5e7eb" stroke-width="1"/>
    <rect x="330" y="15" width="50" height="6" rx="2" fill="#e5e7eb"/>
    <rect x="330" y="35" width="80" height="24" rx="4" fill="#f59e0b"/>
    <text x="370" y="52" font-family="system-ui" font-size="14" fill="#ffffff" font-weight="bold" text-anchor="middle">87%</text>
    
    <!-- Table -->
    <rect x="0" y="100" width="465" height="210" rx="8" fill="#ffffff" stroke="#e5e7eb" stroke-width="1"/>
    <rect x="0" y="100" width="465" height="40" rx="8" fill="#f9fafb"/>
    <text x="20" y="125" font-family="system-ui" font-size="11" fill="#6b7280" font-weight="500">Affiliate</text>
    <text x="120" y="125" font-family="system-ui" font-size="11" fill="#6b7280" font-weight="500">Campaign</text>
    <text x="220" y="125" font-family="system-ui" font-size="11" fill="#6b7280" font-weight="500">Clicks</text>
    <text x="300" y="125" font-family="system-ui" font-size="11" fill="#6b7280" font-weight="500">Commission</text>
    <text x="390" y="125" font-family="system-ui" font-size="11" fill="#6b7280" font-weight="500">Status</text>
    
    <!-- Table Rows -->
    <g transform="translate(0, 155)">
      <rect x="15" y="0" width="80" height="8" rx="2" fill="#374151"/>
      <rect x="120" y="0" width="80" height="8" rx="2" fill="#9ca3af"/>
      <rect x="220" y="0" width="40" height="8" rx="2" fill="#6b7280"/>
      <rect x="300" y="0" width="60" height="8" rx="2" fill="#6b7280"/>
      <rect x="390" y="-2" width="50" height="20" rx="10" fill="#d1fae5"/>
      <text x="415" y="11" font-family="system-ui" font-size="9" fill="#065f46" font-weight="500" text-anchor="middle">Active</text>
    </g>
    
    <g transform="translate(0, 190)">
      <rect x="15" y="0" width="80" height="8" rx="2" fill="#374151"/>
      <rect x="120" y="0" width="80" height="8" rx="2" fill="#9ca3af"/>
      <rect x="220" y="0" width="40" height="8" rx="2" fill="#6b7280"/>
      <rect x="300" y="0" width="60" height="8" rx="2" fill="#6b7280"/>
      <rect x="390" y="-2" width="50" height="20" rx="10" fill="#d1fae5"/>
      <text x="415" y="11" font-family="system-ui" font-size="9" fill="#065f46" font-weight="500" text-anchor="middle">Active</text>
    </g>
    
    <g transform="translate(0, 225)">
      <rect x="15" y="0" width="80" height="8" rx="2" fill="#374151"/>
      <rect x="120" y="0" width="80" height="8" rx="2" fill="#9ca3af"/>
      <rect x="220" y="0" width="40" height="8" rx="2" fill="#6b7280"/>
      <rect x="300" y="0" width="60" height="8" rx="2" fill="#6b7280"/>
      <rect x="390" y="-2" width="55" height="20" rx="10" fill="#fef3c7"/>
      <text x="417" y="11" font-family="system-ui" font-size="9" fill="#92400e" font-weight="500" text-anchor="middle">Pending</text>
    </g>
    
    <g transform="translate(0, 260)">
      <rect x="15" y="0" width="80" height="8" rx="2" fill="#374151"/>
      <rect x="120" y="0" width="80" height="8" rx="2" fill="#9ca3af"/>
      <rect x="220" y="0" width="40" height="8" rx="2" fill="#6b7280"/>
      <rect x="300" y="0" width="60" height="8" rx="2" fill="#6b7280"/>
      <rect x="390" y="-2" width="50" height="20" rx="10" fill="#d1fae5"/>
      <text x="415" y="11" font-family="system-ui" font-size="9" fill="#065f46" font-weight="500" text-anchor="middle">Active</text>
    </g>
  </g>
</svg>